<svg xmlns="http://www.w3.org/2000/svg" xmlns:xlink="http://www.w3.org/1999/xlink" version="1.1" width="256" height="256" viewBox="0 0 256 256" xml:space="preserve">

<defs>
</defs>
<g style="stroke: none; stroke-width: 0; stroke-dasharray: none; stroke-linecap: butt; stroke-linejoin: miter; stroke-miterlimit: 10; fill: none; fill-rule: nonzero; opacity: 1;" transform="translate(1.4065934065934016 1.4065934065934016) scale(2.81 2.81)" >
	<path d="M 64.767 71.021 H 25.234 c -3.297 0 -5.98 -2.683 -5.98 -5.98 V 33.021 c 0 -3.297 2.683 -5.979 5.98 -5.979 h 39.533 c 3.297 0 5.979 2.683 5.979 5.979 V 65.04 C 70.746 68.338 68.063 71.021 64.767 71.021 z M 25.234 29.042 c -2.194 0 -3.98 1.785 -3.98 3.979 V 65.04 c 0 2.195 1.786 3.98 3.98 3.98 h 39.533 c 2.194 0 3.979 -1.785 3.979 -3.98 V 33.021 c 0 -2.194 -1.785 -3.979 -3.979 -3.979 H 25.234 z" style="stroke: none; stroke-width: 1; stroke-dasharray: none; stroke-linecap: butt; stroke-linejoin: miter; stroke-miterlimit: 10; fill: rgb(0,0,0); fill-rule: nonzero; opacity: 1;" transform=" matrix(1 0 0 1 0 0) " stroke-linecap="round" />
	<path d="M 61.842 29.042 c -0.553 0 -1 -0.448 -1 -1 V 16.457 C 60.842 8.485 54.356 2 46.385 2 h -2.77 c -7.971 0 -14.457 6.485 -14.457 14.457 v 11.585 c 0 0.552 -0.448 1 -1 1 s -1 -0.448 -1 -1 V 16.457 C 27.158 7.382 34.541 0 43.615 0 h 2.77 c 9.074 0 16.457 7.382 16.457 16.457 v 11.585 C 62.842 28.594 62.395 29.042 61.842 29.042 z" style="stroke: none; stroke-width: 1; stroke-dasharray: none; stroke-linecap: butt; stroke-linejoin: miter; stroke-miterlimit: 10; fill: rgb(0,0,0); fill-rule: nonzero; opacity: 1;" transform=" matrix(1 0 0 1 0 0) " stroke-linecap="round" />
	<path d="M 45 53.438 c -3.207 0 -5.815 -2.608 -5.815 -5.815 v -2.426 c 0 -3.207 2.609 -5.815 5.815 -5.815 c 3.207 0 5.815 2.609 5.815 5.815 v 2.426 C 50.815 50.829 48.207 53.438 45 53.438 z M 45 41.381 c -2.104 0 -3.815 1.711 -3.815 3.815 v 2.426 c 0 2.104 1.711 3.815 3.815 3.815 c 2.104 0 3.815 -1.712 3.815 -3.815 v -2.426 C 48.815 43.092 47.104 41.381 45 41.381 z" style="stroke: none; stroke-width: 1; stroke-dasharray: none; stroke-linecap: butt; stroke-linejoin: miter; stroke-miterlimit: 10; fill: rgb(0,0,0); fill-rule: nonzero; opacity: 1;" transform=" matrix(1 0 0 1 0 0) " stroke-linecap="round" />
	<path d="M 45 59.297 c -0.552 0 -1 -0.447 -1 -1 v -5.859 c 0 -0.553 0.448 -1 1 -1 s 1 0.447 1 1 v 5.859 C 46 58.85 45.552 59.297 45 59.297 z" style="stroke: none; stroke-width: 1; stroke-dasharray: none; stroke-linecap: butt; stroke-linejoin: miter; stroke-miterlimit: 10; fill: rgb(0,0,0); fill-rule: nonzero; opacity: 1;" transform=" matrix(1 0 0 1 0 0) " stroke-linecap="round" />
	<path d="M 40.765 87.555 c -0.346 0 -0.682 -0.179 -0.867 -0.5 c -0.276 -0.479 -0.112 -1.09 0.366 -1.366 l 8.472 -4.892 c 0.477 -0.276 1.089 -0.114 1.366 0.366 c 0.276 0.479 0.112 1.09 -0.366 1.366 l -8.472 4.892 C 41.107 87.512 40.935 87.555 40.765 87.555 z" style="stroke: none; stroke-width: 1; stroke-dasharray: none; stroke-linecap: butt; stroke-linejoin: miter; stroke-miterlimit: 10; fill: rgb(0,0,0); fill-rule: nonzero; opacity: 1;" transform=" matrix(1 0 0 1 0 0) " stroke-linecap="round" />
	<path d="M 45 90 c -0.552 0 -1 -0.447 -1 -1 v -9.783 c 0 -0.553 0.448 -1 1 -1 s 1 0.447 1 1 V 89 C 46 89.553 45.552 90 45 90 z" style="stroke: none; stroke-width: 1; stroke-dasharray: none; stroke-linecap: butt; stroke-linejoin: miter; stroke-miterlimit: 10; fill: rgb(0,0,0); fill-rule: nonzero; opacity: 1;" transform=" matrix(1 0 0 1 0 0) " stroke-linecap="round" />
	<path d="M 49.235 87.555 c -0.17 0 -0.342 -0.043 -0.499 -0.134 l -8.472 -4.892 c -0.479 -0.276 -0.642 -0.888 -0.366 -1.366 c 0.276 -0.479 0.886 -0.644 1.366 -0.366 l 8.472 4.892 c 0.479 0.276 0.643 0.888 0.366 1.366 C 49.917 87.376 49.581 87.555 49.235 87.555 z" style="stroke: none; stroke-width: 1; stroke-dasharray: none; stroke-linecap: butt; stroke-linejoin: miter; stroke-miterlimit: 10; fill: rgb(0,0,0); fill-rule: nonzero; opacity: 1;" transform=" matrix(1 0 0 1 0 0) " stroke-linecap="round" />
	<path d="M 56.603 87.555 c -0.346 0 -0.682 -0.179 -0.867 -0.5 c -0.276 -0.479 -0.112 -1.09 0.366 -1.366 l 8.472 -4.892 c 0.476 -0.276 1.089 -0.114 1.366 0.366 c 0.276 0.479 0.112 1.09 -0.366 1.366 l -8.472 4.892 C 56.944 87.512 56.772 87.555 56.603 87.555 z" style="stroke: none; stroke-width: 1; stroke-dasharray: none; stroke-linecap: butt; stroke-linejoin: miter; stroke-miterlimit: 10; fill: rgb(0,0,0); fill-rule: nonzero; opacity: 1;" transform=" matrix(1 0 0 1 0 0) " stroke-linecap="round" />
	<path d="M 60.838 90 c -0.553 0 -1 -0.447 -1 -1 v -9.783 c 0 -0.553 0.447 -1 1 -1 s 1 0.447 1 1 V 89 C 61.838 89.553 61.391 90 60.838 90 z" style="stroke: none; stroke-width: 1; stroke-dasharray: none; stroke-linecap: butt; stroke-linejoin: miter; stroke-miterlimit: 10; fill: rgb(0,0,0); fill-rule: nonzero; opacity: 1;" transform=" matrix(1 0 0 1 0 0) " stroke-linecap="round" />
	<path d="M 65.072 87.555 c -0.17 0 -0.342 -0.043 -0.499 -0.134 l -8.472 -4.892 c -0.479 -0.276 -0.643 -0.888 -0.366 -1.366 c 0.276 -0.48 0.889 -0.643 1.366 -0.366 l 8.472 4.892 c 0.479 0.276 0.643 0.888 0.366 1.366 C 65.754 87.376 65.418 87.555 65.072 87.555 z" style="stroke: none; stroke-width: 1; stroke-dasharray: none; stroke-linecap: butt; stroke-linejoin: miter; stroke-miterlimit: 10; fill: rgb(0,0,0); fill-rule: nonzero; opacity: 1;" transform=" matrix(1 0 0 1 0 0) " stroke-linecap="round" />
	<path d="M 24.927 87.555 c -0.346 0 -0.682 -0.179 -0.867 -0.5 c -0.276 -0.479 -0.112 -1.09 0.366 -1.366 l 8.472 -4.892 c 0.478 -0.277 1.09 -0.113 1.366 0.366 c 0.276 0.479 0.112 1.09 -0.366 1.366 l -8.472 4.892 C 25.269 87.512 25.097 87.555 24.927 87.555 z" style="stroke: none; stroke-width: 1; stroke-dasharray: none; stroke-linecap: butt; stroke-linejoin: miter; stroke-miterlimit: 10; fill: rgb(0,0,0); fill-rule: nonzero; opacity: 1;" transform=" matrix(1 0 0 1 0 0) " stroke-linecap="round" />
	<path d="M 29.163 90 c -0.552 0 -1 -0.447 -1 -1 v -9.783 c 0 -0.553 0.448 -1 1 -1 s 1 0.447 1 1 V 89 C 30.163 89.553 29.715 90 29.163 90 z" style="stroke: none; stroke-width: 1; stroke-dasharray: none; stroke-linecap: butt; stroke-linejoin: miter; stroke-miterlimit: 10; fill: rgb(0,0,0); fill-rule: nonzero; opacity: 1;" transform=" matrix(1 0 0 1 0 0) " stroke-linecap="round" />
	<path d="M 33.397 87.555 c -0.169 0 -0.341 -0.043 -0.499 -0.134 l -8.472 -4.892 c -0.479 -0.276 -0.642 -0.888 -0.366 -1.366 c 0.276 -0.479 0.885 -0.644 1.366 -0.366 l 8.472 4.892 c 0.479 0.276 0.642 0.888 0.366 1.366 C 34.079 87.376 33.743 87.555 33.397 87.555 z" style="stroke: none; stroke-width: 1; stroke-dasharray: none; stroke-linecap: butt; stroke-linejoin: miter; stroke-miterlimit: 10; fill: rgb(0,0,0); fill-rule: nonzero; opacity: 1;" transform=" matrix(1 0 0 1 0 0) " stroke-linecap="round" />
	<path d="M 72.44 87.555 c -0.346 0 -0.682 -0.179 -0.867 -0.5 c -0.276 -0.479 -0.112 -1.09 0.366 -1.366 l 8.472 -4.892 c 0.476 -0.276 1.089 -0.114 1.366 0.366 c 0.276 0.479 0.112 1.09 -0.366 1.366 l -8.472 4.892 C 72.782 87.512 72.61 87.555 72.44 87.555 z" style="stroke: none; stroke-width: 1; stroke-dasharray: none; stroke-linecap: butt; stroke-linejoin: miter; stroke-miterlimit: 10; fill: rgb(0,0,0); fill-rule: nonzero; opacity: 1;" transform=" matrix(1 0 0 1 0 0) " stroke-linecap="round" />
	<path d="M 76.675 90 c -0.553 0 -1 -0.447 -1 -1 v -9.783 c 0 -0.553 0.447 -1 1 -1 s 1 0.447 1 1 V 89 C 77.675 89.553 77.228 90 76.675 90 z" style="stroke: none; stroke-width: 1; stroke-dasharray: none; stroke-linecap: butt; stroke-linejoin: miter; stroke-miterlimit: 10; fill: rgb(0,0,0); fill-rule: nonzero; opacity: 1;" transform=" matrix(1 0 0 1 0 0) " stroke-linecap="round" />
	<path d="M 80.91 87.555 c -0.17 0 -0.342 -0.043 -0.499 -0.134 l -8.472 -4.892 c -0.479 -0.276 -0.643 -0.888 -0.366 -1.366 c 0.276 -0.48 0.889 -0.643 1.366 -0.366 l 8.472 4.892 c 0.479 0.276 0.643 0.888 0.366 1.366 C 81.592 87.376 81.256 87.555 80.91 87.555 z" style="stroke: none; stroke-width: 1; stroke-dasharray: none; stroke-linecap: butt; stroke-linejoin: miter; stroke-miterlimit: 10; fill: rgb(0,0,0); fill-rule: nonzero; opacity: 1;" transform=" matrix(1 0 0 1 0 0) " stroke-linecap="round" />
	<path d="M 9.09 87.555 c -0.346 0 -0.682 -0.179 -0.867 -0.5 c -0.276 -0.479 -0.112 -1.09 0.366 -1.366 l 8.472 -4.892 c 0.477 -0.277 1.089 -0.113 1.366 0.366 c 0.276 0.479 0.112 1.09 -0.366 1.366 l -8.472 4.892 C 9.432 87.512 9.259 87.555 9.09 87.555 z" style="stroke: none; stroke-width: 1; stroke-dasharray: none; stroke-linecap: butt; stroke-linejoin: miter; stroke-miterlimit: 10; fill: rgb(0,0,0); fill-rule: nonzero; opacity: 1;" transform=" matrix(1 0 0 1 0 0) " stroke-linecap="round" />
	<path d="M 13.325 90 c -0.552 0 -1 -0.447 -1 -1 v -9.783 c 0 -0.553 0.448 -1 1 -1 s 1 0.447 1 1 V 89 C 14.325 89.553 13.877 90 13.325 90 z" style="stroke: none; stroke-width: 1; stroke-dasharray: none; stroke-linecap: butt; stroke-linejoin: miter; stroke-miterlimit: 10; fill: rgb(0,0,0); fill-rule: nonzero; opacity: 1;" transform=" matrix(1 0 0 1 0 0) " stroke-linecap="round" />
	<path d="M 17.56 87.555 c -0.169 0 -0.341 -0.043 -0.499 -0.134 l -8.472 -4.892 c -0.479 -0.276 -0.642 -0.888 -0.366 -1.366 c 0.276 -0.479 0.886 -0.644 1.366 -0.366 l 8.472 4.892 c 0.479 0.276 0.642 0.888 0.366 1.366 C 18.242 87.376 17.906 87.555 17.56 87.555 z" style="stroke: none; stroke-width: 1; stroke-dasharray: none; stroke-linecap: butt; stroke-linejoin: miter; stroke-miterlimit: 10; fill: rgb(0,0,0); fill-rule: nonzero; opacity: 1;" transform=" matrix(1 0 0 1 0 0) " stroke-linecap="round" />
</g>
</svg>